<svg width="428" height="96" viewBox="0 0 428 96" fill="none" xmlns="http://www.w3.org/2000/svg">
<path d="M410 -492H17V-55.5124C17 -17.2489 36.6581 18.3311 69.0512 38.6974C101.95 59.3818 143.257 61.4058 178.021 44.0367L189.77 38.1663C230.028 18.0521 277.674 19.382 316.748 41.7106L357.635 65.0756C380.968 78.4094 410 61.5615 410 34.6874V-492Z" fill="#3FC1C9" fill-opacity="0.8"/>
<path d="M425 -459H-44V10.7425C-44 28.6379 -37.3035 45.8856 -25.2278 59.0925C-5.3847 80.7946 25.7037 88.1692 53.1802 77.6921L139.548 44.7593C168.126 33.8622 199.405 32.2152 228.969 40.0506L391.577 83.1465C414.075 89.1093 436.019 71.8587 435.536 48.5882L425 -459Z" fill="#3FC1C9" fill-opacity="0.6"/>
</svg>
