<svg width="428" height="104" viewBox="0 0 428 104" fill="none" xmlns="http://www.w3.org/2000/svg">
<path d="M495.724 652.044L9.7303 654.452L7.67749 240.13C7.42323 188.811 36.0042 141.695 81.6353 118.21C116.697 100.165 157.854 98.1821 194.489 112.772L257.86 138.012C285.131 148.873 315.679 147.974 342.265 135.529C412.547 102.628 493.255 153.679 493.64 231.281L495.724 652.044Z" fill="#3FC1C9"/>
<path d="M9.40826 589.453L402.403 587.506L400.241 151.024C400.051 112.761 380.217 77.2785 347.724 57.073C314.722 36.5518 273.406 34.7325 238.729 52.2736L227.008 58.2022C186.85 78.5156 139.199 77.4217 100.015 55.287L59.013 32.1249C35.6142 18.9069 6.66561 35.8984 6.79875 62.7722L9.40826 589.453Z" fill="#3FC1C9" fill-opacity="0.8"/>
<path d="M-5.75505 556.528L463.239 554.204L460.912 84.4675C460.823 66.5723 454.041 49.358 441.9 36.211C421.95 14.6076 390.825 7.38705 363.401 18.0001L277.197 51.3605C248.674 62.399 217.404 64.201 187.801 56.5121L24.9818 14.2224C2.45375 8.37115 -19.4037 25.7303 -18.8054 48.9981L-5.75505 556.528Z" fill="#3FC1C9" fill-opacity="0.6"/>
</svg>
