<svg width="428" height="549" viewBox="0 0 428 549" fill="none" xmlns="http://www.w3.org/2000/svg">
<path d="M-52 -104H434V310.328C434 361.647 405.186 408.621 359.439 431.879C324.288 449.75 283.122 451.53 246.56 436.758L183.314 411.205C156.098 400.209 125.545 400.956 98.8988 413.27C28.4541 445.822 -52 394.371 -52 316.769V-104Z" fill="#3FC1C9"/>
<path d="M434 -39H41V397.488C41 435.751 60.6581 471.331 93.0512 491.697C125.95 512.382 167.257 514.406 202.021 497.037L213.77 491.166C254.028 471.052 301.674 472.382 340.748 494.711L381.635 518.076C404.968 531.409 434 514.562 434 487.687V-39Z" fill="#3FC1C9" fill-opacity="0.8"/>
<path d="M449 -6H-20V463.742C-20 481.638 -13.3035 498.886 -1.22781 512.093C18.6153 533.795 49.7037 541.169 77.1802 530.692L163.548 497.759C192.126 486.862 223.405 485.215 252.969 493.051L415.577 536.146C438.075 542.109 460.019 524.859 459.536 501.588L449 -6Z" fill="#3FC1C9" fill-opacity="0.6"/>
</svg>
