<svg width="428" height="268" viewBox="0 0 428 268" fill="none" xmlns="http://www.w3.org/2000/svg">
<path d="M-60 -385H426V29.3276C426 80.6474 397.186 127.621 351.439 150.879C316.288 168.75 275.122 170.53 238.56 155.758L175.314 130.205C148.098 119.209 117.545 119.956 90.8988 132.27C20.4541 164.822 -60 113.371 -60 35.7689V-385Z" fill="#3FC1C9"/>
<path d="M426 -320H33V116.488C33 154.751 52.6581 190.331 85.0512 210.697C117.95 231.382 159.257 233.406 194.021 216.037L205.77 210.166C246.028 190.052 293.674 191.382 332.748 213.711L373.635 237.076C396.968 250.409 426 233.562 426 206.687V-320Z" fill="#3FC1C9" fill-opacity="0.8"/>
<path d="M441 -287H-28V182.742C-28 200.638 -21.3035 217.886 -9.22781 231.093C10.6153 252.795 41.7037 260.169 69.1802 249.692L155.548 216.759C184.126 205.862 215.405 204.215 244.969 212.051L407.577 255.146C430.075 261.109 452.019 243.859 451.536 220.588L441 -287Z" fill="#3FC1C9" fill-opacity="0.6"/>
</svg>
